<?xml version="1.0" encoding="utf-8"?>
<!-- Generator: Adobe Illustrator 28.0.0, SVG Export Plug-In . SVG Version: 6.00 Build 0)  -->
<svg version="1.1" id="Calque_1" xmlns="http://www.w3.org/2000/svg" xmlns:xlink="http://www.w3.org/1999/xlink" x="0px" y="0px"
	 viewBox="0 0 100 125" style="enable-background:new 0 0 100 125;" xml:space="preserve">
<style type="text/css">
	.st0{fill:none;}
</style>
<path id="clipPath" class="st0" d="M50,3.3c-1.6,0-3.2,0.4-4.6,1.2L14.4,22.4c-2.9,1.7-4.6,4.7-4.6,8v35.7c0,3.3,1.8,6.4,4.6,8
	l30.9,17.9c1.4,0.8,3,1.2,4.6,1.2s3.2-0.4,4.6-1.2l30.9-17.9c2.9-1.7,4.6-4.7,4.6-8V30.5c0-3.3-1.8-6.4-4.6-8L54.6,4.6
	C53.2,3.7,51.6,3.3,50,3.3L50,3.3z"/>
</svg>
