<?xml version="1.0" encoding="utf-8"?>
<!-- Generator: Adobe Illustrator 28.0.0, SVG Export Plug-In . SVG Version: 6.00 Build 0)  -->
<svg version="1.1" id="Calque_1" xmlns="http://www.w3.org/2000/svg" xmlns:xlink="http://www.w3.org/1999/xlink" x="0px" y="0px"
	 viewBox="0 0 100 96" style="enable-background:new 0 0 100 96;" xml:space="preserve">
<style type="text/css">
	.st0{fill:#42032C;}
	.st1{fill:#FFFFFF;}
</style>
<path class="st0" d="M50,3.3c-1.6,0-3.2,0.4-4.6,1.2L14.4,22.4c-2.9,1.7-4.6,4.7-4.6,8v35.7c0,3.3,1.8,6.4,4.6,8l30.9,17.9
	c1.4,0.8,3,1.2,4.6,1.2s3.2-0.4,4.6-1.2l30.9-17.9c2.9-1.7,4.6-4.7,4.6-8V30.5c0-3.3-1.8-6.4-4.6-8L54.6,4.6
	C53.2,3.7,51.6,3.3,50,3.3L50,3.3z"/>
<g>
	<path class="st1" d="M39.6,28.3c4.3,1.7,5.1,4.1,5.3,4.7c-1.4,1.3-2.2,3.2-2.2,5.3c0,0.9,0.1,1.7,0.4,2.5l6.6-2.6c0,0,0,0,0.1,0
		c0.1,0,0.1,0,0.2,0s0.1,0,0.1,0c0.1,0,0.1,0,0.1,0c0.1,0,0.1,0,0.2,0c0,0,0,0,0.1,0l3.5,1.4l0,0l3.1,1.2c0.3-0.8,0.4-1.6,0.4-2.5
		c0-2.1-0.9-3.9-2.2-5.3c0.1-0.6,0.9-3,5.3-4.7c0.5-0.2,0.8-0.8,0.6-1.3s-0.8-0.8-1.3-0.6c-4.1,1.6-5.6,4-6.2,5.3
		c-1-0.5-2.2-0.9-3.5-0.9s-2.4,0.3-3.5,0.9c-0.6-1.4-2.1-3.7-6.2-5.3c-0.5-0.2-1.1,0-1.3,0.6C38.8,27.5,39,28.1,39.6,28.3z"/>
	<path class="st1" d="M50,70.3c2.3,0,4.5-2.2,5.9-5.6H44.1C45.5,68.1,47.7,70.3,50,70.3z"/>
	<polygon class="st1" points="46.6,47 53.4,47 50,41.2 	"/>
	<path class="st1" d="M46.9,41.5L46.9,41.5l-17.2,6.7c-2.1,0.8-3.7,2.6-4.1,4.9c-0.5,2.2,0.2,4.5,1.8,6.1c1.3,1.3,3,2,4.7,2l0,0
		c2.4,0,4.6-1.2,5.8-3.3l9.7-16.6L46.9,41.5z"/>
	<path class="st1" d="M74.4,53c-0.5-2.2-2-4-4.1-4.9l-17.2-6.7l0,0l-0.7-0.3l9.7,16.6c1.2,2.1,3.4,3.3,5.8,3.3c1.8,0,3.5-0.7,4.7-2
		C74.2,57.5,74.9,55.2,74.4,53z"/>
	<path class="st1" d="M54.6,49h-9.1l-3,5.2c0,0.2,0,0.4,0,0.6h15.3c0-0.2,0-0.4,0-0.6L54.6,49z"/>
	<path class="st1" d="M43.4,62.7h13.2c0.5-1.8,0.9-3.7,1-5.8H42.4C42.5,58.9,42.9,60.9,43.4,62.7z"/>
</g>
</svg>
